<svg width="85" height="81" viewBox="0 0 85 81" fill="none" xmlns="http://www.w3.org/2000/svg">
<path d="M32.2969 1.18234L33.2508 4.86442C29.4911 5.74987 25.8928 7.16957 22.5767 9.0758L20.5361 5.81946C24.1862 3.71302 28.152 2.14933 32.2969 1.18234ZM52.7031 1.18234L51.7492 4.86442C55.5088 5.74987 59.1072 7.16957 62.4233 9.0758L64.4881 5.81946C60.8284 3.71487 56.8549 2.15138 52.7031 1.18234ZM6.10679 19.5582C3.89839 23.0417 2.25766 26.8244 1.24067 30.7771L5.10458 31.6861C6.03376 28.1034 7.52357 24.6744 9.52393 21.5143L6.10679 19.5582ZM3.98163 40.5001C3.98134 38.6589 4.12665 36.8203 4.41632 35L0.479964 34.4246C-0.159988 38.4481 -0.159988 42.5405 0.479964 46.564L4.41632 46.0002C4.1271 44.1798 3.9818 42.3412 3.98163 40.5001ZM64.4639 75.1691L62.4233 71.9243C59.1124 73.8323 55.5178 75.2522 51.7613 76.1357L52.7152 79.8178C56.855 78.8415 60.816 77.2742 64.4639 75.1691ZM81.0184 40.5001C81.0182 42.3412 80.8729 44.1798 80.5837 46.0002L84.52 46.564C85.16 42.5405 85.16 38.4481 84.52 34.4246L80.5837 35C80.8734 36.8203 81.0187 38.6589 81.0184 40.5001ZM83.7593 50.2115L79.8954 49.3025C78.9684 52.8895 77.4785 56.3226 75.4761 59.4858L78.8932 61.4419C81.1037 57.9554 82.7446 54.1686 83.7593 50.2115ZM48.2717 76.7916C44.4457 77.3439 40.5543 77.3439 36.7283 76.7916L36.1366 80.5427C40.3547 81.1526 44.6453 81.1526 48.8634 80.5427L48.2717 76.7916ZM73.5079 62.2704C71.2128 65.2361 68.461 67.8546 65.3454 70.0372L67.712 73.098C71.1437 70.6906 74.1797 67.8091 76.7198 64.5486L73.5079 62.2704ZM65.3454 10.9514C68.4613 13.1382 71.2131 15.7605 73.5079 18.7297L76.7198 16.4515C74.1886 13.188 71.1608 10.3026 67.7362 7.89063L65.3454 10.9514ZM11.4921 18.7297C13.7869 15.7605 16.5387 13.1382 19.6546 10.9514L17.2638 7.89063C13.8392 10.3026 10.8114 13.188 8.28024 16.4515L11.4921 18.7297ZM78.8932 19.5582L75.4761 21.5143C77.4783 24.6694 78.9683 28.0949 79.8954 31.6746L83.7593 30.7656C82.7423 26.8165 81.1015 23.0376 78.8932 19.5582ZM36.7283 4.20855C40.5543 3.65617 44.4457 3.65617 48.2717 4.20855L48.8634 0.457426C44.6453 -0.152475 40.3547 -0.152475 36.1366 0.457426L36.7283 4.20855ZM13.5327 74.1105L5.30985 75.9286L7.22973 68.0926L3.35375 67.2297L1.43387 75.0656C1.31374 75.5514 1.29531 76.055 1.37962 76.5476C1.46393 77.0403 1.64933 77.5122 1.92521 77.9365C2.20109 78.3608 2.56205 78.729 2.98743 79.0202C3.4128 79.3115 3.89426 79.5199 4.40425 79.6337C5.00068 79.7602 5.61903 79.7602 6.21546 79.6337L14.4383 77.8271L13.5327 74.1105ZM4.17483 63.8467L8.06289 64.6982L9.39111 59.2672C7.45147 56.1666 6.0068 52.8083 5.10458 49.3025L1.24067 50.2115C2.10979 53.5673 3.42446 56.8037 5.15288 59.8425L4.17483 63.8467ZM22.7699 72.0624L17.0706 73.3281L17.9762 77.0332L22.1662 76.1012C25.3526 77.7532 28.7495 79.0063 32.2727 79.8293L33.2266 76.1472C29.5592 75.2762 26.0475 73.8919 22.8061 72.0394L22.7699 72.0624ZM42.5 7.59146C23.4219 7.60296 7.97837 22.3428 7.97837 40.5116C7.98887 46.6999 9.82576 52.7607 13.2792 58.0014L9.95862 71.5101L24.1223 68.3458C40.2662 78.0228 61.5901 73.4087 71.745 58.036C81.8998 42.6633 77.0699 22.3428 60.9381 12.6543C55.4155 9.34482 49.0239 7.58978 42.5 7.59146Z" fill="white"/>
</svg>
